<?xml version="1.0" encoding="UTF-8"?>
<!DOCTYPE svg PUBLIC "-//W3C//DTD SVG 1.1//EN" "http://www.w3.org/Graphics/SVG/1.1/DTD/svg11.dtd">
<svg xmlns="http://www.w3.org/2000/svg" version="1.1" width="2000px" height="424px" style="shape-rendering:geometricPrecision; text-rendering:geometricPrecision; image-rendering:optimizeQuality; fill-rule:evenodd; clip-rule:evenodd" xmlns:xlink="http://www.w3.org/1999/xlink">
<g><path style="opacity:0.98" fill="#000000" d="M 1357.5,-0.5 C 1374.5,-0.5 1391.5,-0.5 1408.5,-0.5C 1416.45,2.62348 1421.95,8.29015 1425,16.5C 1430.07,30.4145 1431.74,44.7478 1430,59.5C 1419.33,135.497 1408.67,211.497 1398,287.5C 1392.84,331.353 1390.01,375.353 1389.5,419.5C 1373.83,419.667 1358.16,419.5 1342.5,419C 1335.11,413.747 1330.61,406.58 1329,397.5C 1325.42,384.643 1324.75,371.643 1327,358.5C 1333.71,329.677 1340.71,301.01 1348,272.5C 1330.66,308.799 1309,342.133 1283,372.5C 1266.18,391.995 1246.02,406.829 1222.5,417C 1214.24,419.981 1205.91,422.147 1197.5,423.5C 1192.83,423.5 1188.17,423.5 1183.5,423.5C 1161.06,420.582 1146.23,408.249 1139,386.5C 1126.68,342.296 1126.34,297.963 1138,253.5C 1149.27,210.281 1172.43,175.114 1207.5,148C 1253.96,118.013 1302.46,114.179 1353,136.5C 1355.16,90.8575 1356.66,45.1908 1357.5,-0.5 Z M 1254.5,167.5 C 1285.7,170.602 1314.36,180.769 1340.5,198C 1320.73,247.411 1294.23,292.578 1261,333.5C 1252.02,343.827 1241.85,352.66 1230.5,360C 1215.84,367.417 1206.67,362.917 1203,346.5C 1196.11,313.582 1195.78,280.582 1202,247.5C 1205.98,221.523 1216.48,198.69 1233.5,179C 1239.71,173.566 1246.71,169.733 1254.5,167.5 Z"/></g>
<g><path style="opacity:0.98" fill="#000000" d="M 260.5,423.5 C 255.833,423.5 251.167,423.5 246.5,423.5C 227.629,421.141 213.796,411.475 205,394.5C 201.664,387.491 199.33,380.158 198,372.5C 196.727,359.86 195.727,347.193 195,334.5C 187.125,360.767 173.292,383.267 153.5,402C 138.311,413.598 121.311,420.765 102.5,423.5C 97.8333,423.5 93.1667,423.5 88.5,423.5C 69.618,421.465 56.118,411.798 48,394.5C 39.8242,374.626 34.8242,353.959 33,332.5C 29.0269,288.129 24.6936,243.796 20,199.5C 18.2989,182.382 12.2989,167.048 2,153.5C -0.468662,147.25 1.03134,142.083 6.5,138C 25.5732,126.532 46.2399,121.199 68.5,122C 75.8854,126.906 80.7188,133.739 83,142.5C 84.7187,149.427 86.052,156.427 87,163.5C 92.3668,218.869 98.0335,274.202 104,329.5C 108.313,367.508 123.646,372.842 150,345.5C 163.331,326.494 171.998,305.494 176,282.5C 183.913,243.298 180.913,204.965 167,167.5C 163.919,161.669 160.585,156.002 157,150.5C 155.811,146.291 156.644,142.624 159.5,139.5C 179.285,126.969 200.952,121.136 224.5,122C 233.433,126.016 238.933,132.849 241,142.5C 242.656,149.437 243.99,156.437 245,163.5C 250.607,222.173 256.273,280.84 262,339.5C 264.468,363.151 275.634,368.651 295.5,356C 305.08,345.682 312.247,333.848 317,320.5C 330.935,277.424 335.268,233.424 330,188.5C 326.723,180.945 323.723,173.278 321,165.5C 319.959,160.56 320.626,155.894 323,151.5C 340.503,132.83 362.003,122.997 387.5,122C 396.442,123.942 401.608,129.442 403,138.5C 406.224,207.263 392.224,272.263 361,333.5C 346.297,361.209 326.797,385.042 302.5,405C 289.847,414.378 275.847,420.545 260.5,423.5 Z"/></g>
<g><path style="opacity:0.98" fill="#000000" d="M 565.5,121.5 C 639.745,117.909 679.245,153.242 684,227.5C 687.918,282.407 672.252,330.74 637,372.5C 590.32,421.628 535.154,434.461 471.5,411C 444.929,395.744 428.762,372.911 423,342.5C 410.879,272.096 429.713,211.596 479.5,161C 504.081,138.875 532.748,125.709 565.5,121.5 Z M 561.5,166.5 C 581.783,166.049 595.95,175.049 604,193.5C 610.839,212.202 614.006,231.535 613.5,251.5C 613.998,283.848 607.165,314.514 593,343.5C 582.854,362.151 567.354,373.318 546.5,377C 523.796,378.231 507.962,368.398 499,347.5C 494.402,335.247 491.735,322.58 491,309.5C 488.762,279.408 492.428,250.074 502,221.5C 508.636,201.705 520.469,185.872 537.5,174C 545.155,169.946 553.155,167.446 561.5,166.5 Z"/></g>
<g><path style="opacity:0.981" fill="#000000" d="M 968.5,423.5 C 964.167,423.5 959.833,423.5 955.5,423.5C 927.865,418.36 911.698,401.694 907,373.5C 905.425,360.217 904.425,346.883 904,333.5C 895.413,364.714 878.246,389.881 852.5,409C 839.652,416.558 825.986,421.391 811.5,423.5C 806.833,423.5 802.167,423.5 797.5,423.5C 782.181,422.087 770.014,415.087 761,402.5C 750.312,381.087 743.979,358.421 742,334.5C 737.993,288.092 733.327,241.758 728,195.5C 726.03,179.908 720.364,165.908 711,153.5C 708.1,147.077 709.6,141.91 715.5,138C 735.206,125.739 756.539,120.739 779.5,123C 785.827,128.481 789.993,135.314 792,143.5C 793.764,150.754 795.098,158.087 796,165.5C 801.307,220.542 806.973,275.542 813,330.5C 817.297,367.133 832.297,372.466 858,346.5C 876.967,319.265 886.967,288.931 888,255.5C 890.504,226.364 886.838,198.031 877,170.5C 874.091,163.676 870.424,157.342 866,151.5C 864.807,146.848 865.64,142.681 868.5,139C 888.447,126.929 910.114,121.263 933.5,122C 942.315,126.498 947.815,133.665 950,143.5C 951.764,150.754 953.098,158.087 954,165.5C 959.547,223.847 965.213,282.18 971,340.5C 975.405,365.08 987.405,369.414 1007,353.5C 1014.78,344.281 1020.78,333.948 1025,322.5C 1039.5,279.181 1044.17,234.848 1039,189.5C 1036.28,181.722 1033.28,174.055 1030,166.5C 1029.12,161.713 1029.45,157.047 1031,152.5C 1048.66,133.254 1070.49,123.088 1096.5,122C 1106.33,124.172 1111.5,130.339 1112,140.5C 1114.57,205.339 1101.9,267.006 1074,325.5C 1060.99,350.849 1044.49,373.682 1024.5,394C 1008.7,409.398 990.036,419.231 968.5,423.5 Z"/></g>
<g><path style="opacity:0.978" fill="#000000" d="M 1560.5,423.5 C 1554.17,423.5 1547.83,423.5 1541.5,423.5C 1499.63,419.804 1472.46,397.804 1460,357.5C 1448.97,303.72 1455.97,252.387 1481,203.5C 1520.78,135.203 1579.28,110.036 1656.5,128C 1686.93,141.512 1700.1,165.012 1696,198.5C 1694.29,214.98 1688.29,229.646 1678,242.5C 1665.51,256.665 1651.01,268.165 1634.5,277C 1600.1,293.911 1564.1,306.244 1526.5,314C 1526.01,340.341 1538.68,356.341 1564.5,362C 1590.6,364.78 1615.27,360.113 1638.5,348C 1649.37,341.731 1660.37,335.731 1671.5,330C 1677.73,328.889 1681.07,331.556 1681.5,338C 1679.67,348.822 1675.51,358.656 1669,367.5C 1640.44,400.864 1604.27,419.531 1560.5,423.5 Z M 1596.5,166.5 C 1615.07,165.51 1625.24,174.177 1627,192.5C 1628.58,212.763 1621.75,229.597 1606.5,243C 1592.86,254.279 1577.52,262.612 1560.5,268C 1548.78,271.721 1536.95,274.888 1525,277.5C 1525.74,245.174 1535.41,215.841 1554,189.5C 1564.94,175.616 1579.11,167.949 1596.5,166.5 Z"/></g>
<g><path style="opacity:0.98" fill="#000000" d="M 1757.5,121.5 C 1772.84,121.333 1788.17,121.5 1803.5,122C 1813.14,127.756 1818.98,136.256 1821,147.5C 1823.04,156.525 1823.37,165.525 1822,174.5C 1813.24,206.438 1803.91,238.105 1794,269.5C 1812.05,227.135 1837.55,189.968 1870.5,158C 1886.99,142.878 1905.99,131.878 1927.5,125C 1943.33,120.6 1958.99,121.267 1974.5,127C 1987.83,134.127 1995.33,145.293 1997,160.5C 1998.76,172.154 1998.76,183.821 1997,195.5C 1985.94,270.194 1974.77,344.86 1963.5,419.5C 1947.5,419.667 1931.5,419.5 1915.5,419C 1910.64,415.467 1907.8,410.634 1907,404.5C 1905.02,385.817 1905.36,367.15 1908,348.5C 1915,301.684 1921.83,254.851 1928.5,208C 1926.3,186.741 1916.63,182.741 1899.5,196C 1874.69,216.145 1854.19,239.979 1838,267.5C 1813.87,307.563 1799.53,350.897 1795,397.5C 1794.19,400.446 1792.86,403.112 1791,405.5C 1781.49,413.167 1770.66,418 1758.5,420C 1749.42,422.602 1740.42,422.602 1731.5,420C 1730.67,419.167 1729.83,418.333 1729,417.5C 1727.26,412.483 1726.43,407.316 1726.5,402C 1736.21,308.421 1746.55,214.921 1757.5,121.5 Z"/></g>
</svg>
